# xmcd
#
# Track frame offsets:
#	150
#	14189
#	34543
#	49168
#	68017
#	90323
#	112375
#	127372
#	150147
#	165383
#	181798
#	196454
#	214483
#	230441
#	250427
#
# Disc length: 3502 seconds
# Revision: 2
# Processed by: cddbd v1.5.2PL0 Copyright (c) Steve Scherf et al.
# Submitted via: dBpowerAMP V12.0
#
DISCID=d10dac0f
DTITLE=Billy Branch and The Sons Of Blues - Roots And Branches: The Songs Of Little Walter
DYEAR=2019
DGENRE=Blues
TTITLE0=Nobody But You
TTITLE1=Mellow Down Easy
TTITLE2=Roller Coaster
TTITLE3=Blue And Lonesome
TTITLE4=Hate To See You Go
TTITLE5=	My Babe
TTITLE6=Juke
TTITLE7=Last Night
TTITLE8=Just Your Fool - Key To The Highway
TTITLE9=Boom Boom Out Go The Lights
TTITLE10=It's Too Late Brother
TTITLE11=One More Chance With You
TTITLE12=You're So Fine
TTITLE13=	Blues With A Feeling
TTITLE14=Remembering Little Walter By Marion Diaz (Little Walter's Daughter)
EXTD=
EXTT0=
EXTT1=
EXTT2=
EXTT3=
EXTT4=
EXTT5=
EXTT6=
EXTT7=
EXTT8=
EXTT9=
EXTT10=
EXTT11=
EXTT12=
EXTT13=
EXTT14=
PLAYORDER=
